<?xml version="1.0" standalone="no"?>
<!DOCTYPE svg PUBLIC "-//W3C//DTD SVG 20010904//EN"
 "http://www.w3.org/TR/2001/REC-SVG-20010904/DTD/svg10.dtd">
<svg version="1.0" xmlns="http://www.w3.org/2000/svg"
 width="512.000000pt" height="512.000000pt" viewBox="0 0 512.000000 512.000000"
 preserveAspectRatio="xMidYMid meet">
<metadata>
Created by potrace 1.14, written by Peter Selinger 2001-2017
</metadata>
<g transform="translate(0.000000,512.000000) scale(0.100000,-0.100000)"
fill="#000000" stroke="none">
<path d="M2358 5045 c-2 -1 -35 -5 -73 -9 -73 -7 -92 -10 -185 -27 -93 -17
-102 -19 -200 -44 -593 -151 -1133 -534 -1477 -1050 -207 -310 -349 -682 -389
-1019 -4 -28 -10 -73 -14 -100 -12 -78 -9 -402 5 -506 22 -161 25 -182 51
-290 24 -102 47 -185 64 -225 4 -11 20 -54 35 -95 82 -222 210 -442 385 -664
139 -177 375 -389 585 -527 304 -200 709 -352 1055 -394 19 -3 58 -8 85 -12
66 -10 474 -10 549 0 222 29 370 61 546 120 140 46 212 76 355 149 709 359
1205 1023 1340 1793 25 142 30 217 30 420 0 242 -6 297 -61 563 -10 50 -76
256 -105 329 -255 642 -772 1153 -1429 1413 -85 34 -276 96 -319 105 -9 1 -63
13 -121 24 -171 35 -314 48 -517 48 -106 0 -194 -1 -195 -2z m397 -380 c228
-22 365 -54 605 -140 25 -9 95 -40 155 -69 728 -349 1198 -1075 1209 -1866 0
-47 -1 -106 -4 -132 -5 -47 -6 -45 -330 598 -179 354 -328 644 -332 644 -5 0
-8 -4 -8 -9 0 -5 -20 -51 -44 -102 -24 -52 -55 -119 -69 -149 -14 -30 -102
-221 -195 -425 -94 -203 -184 -401 -202 -440 -18 -38 -49 -107 -71 -153 -21
-46 -39 -87 -39 -92 0 -41 -35 13 -135 213 -65 127 -184 363 -265 522 -81 160
-216 427 -300 595 l-153 305 -26 -55 c-32 -69 -48 -102 -324 -705 -123 -269
-261 -571 -307 -670 -45 -99 -102 -222 -127 -274 l-44 -94 -113 224 c-62 123
-217 430 -345 683 l-231 458 -29 -63 c-26 -59 -169 -369 -408 -889 -52 -113
-115 -252 -141 -309 -51 -113 -50 -113 -67 4 -24 177 -24 489 0 575 2 8 7 35
10 60 10 72 61 269 95 360 186 509 592 953 1085 1185 125 59 125 59 210 91 89
33 320 92 388 100 29 3 58 7 66 10 8 2 62 7 120 11 58 3 107 7 109 8 4 3 196
-4 257 -10z m1676 -2104 l240 -473 -21 -75 c-71 -259 -216 -541 -387 -753 -77
-96 -200 -226 -206 -220 -12 12 -547 1073 -547 1084 0 4 36 84 79 179 43 94
93 204 111 242 66 146 128 280 179 388 22 49 41 90 41 92 0 2 23 52 51 112 28
59 58 123 67 141 l15 34 69 -139 c38 -76 177 -351 309 -612z m-1831 567 c37
-75 512 -1017 932 -1846 132 -261 238 -475 236 -476 -15 -13 -166 -100 -216
-125 -302 -152 -674 -240 -994 -235 -99 1 -274 13 -291 19 -7 3 -30 6 -52 9
-132 15 -394 93 -545 162 -114 53 -230 115 -230 124 0 4 20 49 44 101 62 135
79 171 378 824 149 325 284 619 301 655 91 196 107 231 107 235 0 1 21 47 46
101 108 230 124 265 124 269 0 2 25 56 55 120 30 65 55 121 55 126 0 25 19 2
50 -63z m-1246 -590 c250 -495 295 -590 287 -610 -5 -13 -30 -68 -56 -123 -26
-55 -70 -149 -97 -210 -28 -60 -71 -153 -95 -205 -25 -52 -64 -138 -88 -190
-24 -52 -61 -134 -84 -183 l-41 -87 -32 27 c-84 70 -264 261 -327 346 -125
168 -225 348 -290 522 -13 33 -26 69 -30 79 -5 13 3 41 24 85 18 36 42 89 55
116 12 28 36 79 52 115 17 36 77 166 133 290 57 124 128 278 159 344 31 65 56
120 56 121 0 9 71 157 74 154 2 -2 137 -268 300 -591z"/>
<path d="M3981 2849 c-46 -100 -99 -215 -118 -258 l-35 -76 38 35 c21 19 49
46 63 59 l26 25 11 -52 c20 -90 25 -93 43 -28 l17 59 32 -51 c18 -29 32 -57
32 -64 0 -6 3 -8 7 -5 3 4 7 28 9 53 2 26 5 49 8 51 2 2 21 -21 41 -52 21 -31
39 -55 40 -53 1 2 5 30 8 63 4 33 6 62 7 63 0 2 28 -20 62 -49 34 -30 59 -49
57 -44 -19 47 -255 505 -260 505 -3 0 -43 -81 -88 -181z"/>
<path d="M2550 2934 c-26 -58 -74 -159 -123 -264 -19 -41 -45 -97 -57 -125
-12 -27 -34 -75 -47 -105 -14 -30 -38 -82 -53 -115 -15 -33 -42 -91 -59 -130
-17 -38 -35 -77 -41 -86 -5 -9 -16 -33 -24 -54 l-16 -37 48 41 c26 22 76 68
112 100 36 33 67 61 70 61 3 0 16 -51 29 -112 13 -62 27 -121 31 -131 4 -12
17 20 39 92 19 61 37 111 40 111 3 0 35 -50 70 -110 36 -61 66 -109 67 -107 1
1 5 49 8 106 2 56 6 105 9 107 2 3 35 -41 73 -96 78 -116 90 -128 90 -97 2 46
16 212 20 216 3 4 79 -57 187 -151 18 -15 33 -25 35 -23 4 4 -465 934 -478
949 -5 4 -18 -14 -30 -40z"/>
<path d="M1005 2857 c-21 -45 -65 -140 -97 -212 -32 -71 -63 -138 -69 -148 -5
-10 -15 -30 -20 -45 l-10 -27 28 25 c15 14 42 38 60 54 l32 29 9 -39 c6 -22
13 -52 17 -69 l7 -30 15 40 c8 22 16 45 17 52 5 27 14 20 49 -40 l37 -62 1 50
c1 28 1 56 0 63 -3 23 9 12 45 -43 46 -68 50 -67 53 20 1 53 7 52 75 -10 21
-20 41 -34 43 -31 4 4 -200 416 -237 478 l-17 28 -38 -83z"/>
</g>
</svg>
